

<svg fill="#FF5A30" version="1.1" id="Layer_1" xmlns="http://www.w3.org/2000/svg" xmlns:xlink="http://www.w3.org/1999/xlink" viewBox="0 0 511.999 511.999" xml:space="preserve" width="52px" height="52px">
<g id="SVGRepo_iconCarrier"> <g> <g> <path d="M427.352,242.818V20.876H131.518H86.67H56.252H0v470.247h141.719h370.28V242.818H427.352z M86.67,51.293h14.431v26.382 c0,5.618-4.571,10.189-10.189,10.189H86.67V51.293z M30.417,51.293h25.835v66.987v67.596H30.417V51.293z M30.417,216.294h25.835 v59.984H30.417V216.294z M111.301,460.706H30.417V306.695h25.835v128.176h55.049V460.706z M141.719,460.706v-56.253H86.67V216.293 h80.109v139.652h30.417v-102.99h23.32v-30.417h-23.32v-65.133h-30.417v28.471H86.67V118.28h4.242 c22.39,0,40.606-18.216,40.606-40.606V51.293h35.261v38.612h30.417V51.293h117.612v67.082h30.417V51.293h51.71v191.525h-51.71 v-56.942h-30.417v36.663h-23.32v30.417h23.32v20.279h82.127h15.209h69.438v187.471H141.719z"/> </g> </g> <g> <g> <path d="M345.225,301.561v-11.986h-88.158v154.792h88.158V432.38c29.731-6.912,51.959-33.605,51.959-65.409 C397.183,335.166,374.956,308.473,345.225,301.561z M314.808,413.949h-27.324v-93.958h27.324V413.949z M345.225,400.424v-66.908 c12.696,5.794,21.541,18.61,21.541,33.454C366.766,381.814,357.921,394.629,345.225,400.424z"/> </g> </g> <g> <g> <rect x="416.208" y="304.78" width="30.417" height="124.376"/> </g> </g> </g>

</svg>
